<svg width="686" height="56" viewBox="0 0 686 56" fill="none" xmlns="http://www.w3.org/2000/svg">
<path fill-rule="evenodd" clip-rule="evenodd" d="M312.807 36.9972C312.806 29.1069 311.962 22.711 310.92 22.711C309.877 22.711 309.033 29.1069 309.033 36.9972C309.033 26.9041 308.188 18.7223 307.145 18.7223C306.103 18.7223 305.258 26.9041 305.258 36.9972C305.258 23.9594 304.413 13.3904 303.371 13.3904C302.329 13.3904 301.484 23.9594 301.484 36.9972C301.484 20.8573 300.639 7.77378 299.597 7.77378C298.555 7.77378 297.71 20.8573 297.71 36.9972C297.709 33.5726 296.865 30.7969 295.823 30.7969C294.781 30.7969 293.936 33.5726 293.936 36.9972C293.936 21.8689 293.091 9.60534 292.048 9.60534C291.006 9.60534 290.161 21.8689 290.161 36.9972C290.161 17.036 289.316 0.85476 288.274 0.85476C287.232 0.85476 286.387 17.036 286.387 36.9972C286.387 17.4182 285.542 1.54662 284.5 1.54662C283.458 1.54662 282.613 17.4182 282.613 36.9972C282.613 27.7582 281.768 20.269 280.726 20.269C279.684 20.269 278.839 27.7582 278.839 36.9972C278.839 29.9161 277.994 24.1762 276.952 24.1762C275.91 24.1762 275.065 29.9161 275.064 36.9972C275.064 33.5726 274.219 30.7969 273.177 30.7969C272.135 30.7969 271.291 33.5726 271.29 36.9972C271.29 32.0065 270.445 27.9614 269.403 27.9614C268.361 27.9614 267.516 32.0065 267.516 36.9972C267.516 33.5726 266.671 30.7969 265.629 30.7969C264.587 30.7969 263.742 33.5726 263.742 36.9972C263.742 17.4182 262.897 1.54662 261.855 1.54662C260.812 1.54662 259.968 17.4182 259.968 36.9972C259.968 22.813 259.123 11.3148 258.081 11.3148C257.038 11.3148 256.194 22.813 256.194 36.9972C256.193 29.3766 255.349 23.1994 254.306 23.1994C253.264 23.1994 252.419 29.3766 252.419 36.9972C252.419 34.5916 251.574 32.6419 250.532 32.6419C249.49 32.6419 248.645 34.5916 248.645 36.9972C248.645 32.5011 247.8 28.8567 246.758 28.8567C245.716 28.8567 244.871 32.5011 244.871 36.9972C244.87 34.6815 244.025 32.8047 242.984 32.8047C241.942 32.8047 241.097 34.6815 241.097 36.9972C241.096 33.5726 240.251 30.7969 239.209 30.7969C238.167 30.7969 237.323 33.5726 237.322 36.9972C237.322 25.9599 236.477 17.0129 235.435 17.0129C234.393 17.0129 233.548 25.9599 233.548 36.9972C233.548 18.8117 232.703 4.0701 231.661 4.0701C230.619 4.0701 229.774 18.8117 229.774 36.9972C229.774 17.2608 228.929 1.26174 227.887 1.26174C226.844 1.26174 225.999 17.2608 225.999 36.9972C225.999 20.685 225.155 7.46178 224.113 7.46178C223.07 7.46178 222.225 20.685 222.225 36.9972C222.225 22.693 221.38 11.0977 220.338 11.0977C219.296 11.0977 218.451 22.693 218.451 36.9972C218.451 24.9409 217.606 15.1678 216.564 15.1678C215.522 15.1678 214.677 24.9409 214.677 36.9972C214.677 27.1887 213.832 19.2378 212.79 19.2378C211.747 19.2378 210.903 27.1887 210.902 36.9972C210.902 32.3138 210.058 28.5176 209.015 28.5176C207.974 28.5176 207.128 32.3138 207.128 36.9972C207.128 33.5726 206.283 30.7969 205.241 30.7969C204.199 30.7969 203.355 33.5726 203.354 36.9972C203.354 32.9731 202.509 29.7115 201.467 29.7115C200.425 29.7115 199.58 32.9731 199.58 36.9972C199.579 33.8423 198.735 31.2853 197.693 31.2853C196.651 31.2853 195.806 33.8423 195.806 36.9972C195.805 34.5916 194.961 32.6419 193.919 32.6419C192.877 32.6419 192.032 34.5916 192.032 36.9972C192.031 33.5726 191.186 30.7969 190.144 30.7969C189.102 30.7969 188.258 33.5726 188.258 36.9972C188.257 31.7743 187.412 27.5408 186.37 27.5408C185.328 27.5408 184.483 31.7743 184.483 36.9972C184.483 29.7363 183.638 23.8507 182.596 23.8507C181.554 23.8507 180.709 29.7363 180.709 36.9972C180.709 27.3685 179.864 19.5634 178.822 19.5634C177.78 19.5634 176.935 27.3685 176.935 36.9972C176.935 24.1018 176.09 13.6482 175.048 13.6482C174.005 13.6482 173.16 24.1018 173.16 36.9972C173.16 23.0229 172.315 11.6946 171.273 11.6946C170.231 11.6946 169.386 23.0229 169.386 36.9972C169.386 33.5726 168.541 30.7969 167.499 30.7969C166.457 30.7969 165.612 33.5726 165.612 36.9972C165.612 29.3167 164.767 23.0908 163.725 23.0908C162.683 23.0908 161.838 29.3167 161.838 36.9972C161.837 32.134 160.993 28.192 159.951 28.192C158.909 28.192 158.064 32.134 158.063 36.9972C158.063 33.5726 157.219 30.7969 156.176 30.7969C155.135 30.7969 154.289 33.5726 154.289 36.9972C154.289 31.7743 153.444 27.5408 152.402 27.5408C151.36 27.5408 150.515 31.7743 150.515 36.9972C150.515 29.1069 149.67 22.711 148.628 22.711C147.586 22.711 146.741 29.1069 146.741 36.9972C146.741 24.9708 145.896 15.222 144.853 15.222C143.812 15.222 142.967 24.9708 142.967 36.9972C142.967 20.1454 142.121 6.48498 141.08 6.48498C140.037 6.48498 139.193 20.1454 139.192 36.9972C139.192 22.783 138.347 11.2605 137.305 11.2605C136.263 11.2605 135.418 22.783 135.418 36.9972C135.418 30.4855 134.573 25.2072 133.531 25.2072C132.489 25.2072 131.644 30.4855 131.644 36.9972C131.644 31.5945 130.799 27.2152 129.757 27.2152C128.715 27.2152 127.87 31.5945 127.87 36.9972C127.87 30.3058 127.025 24.8816 125.983 24.8816C124.941 24.8816 124.096 30.3058 124.096 36.9972C124.095 24.4914 123.251 14.3538 122.209 14.3538C121.166 14.3538 120.321 24.4914 120.321 36.9972C120.321 21.3444 119.477 8.6556 118.434 8.6556C117.392 8.6556 116.547 21.3444 116.547 36.9972C116.547 19.4261 115.702 5.1825 114.66 5.1825C113.618 5.1825 112.773 19.4261 112.773 36.9972C112.773 30.4855 111.928 25.2072 110.886 25.2072C109.843 25.2072 108.999 30.4855 108.999 36.9972C108.998 32.134 108.153 28.192 107.111 28.192C106.069 28.192 105.225 32.134 105.224 36.9972C105.224 33.8724 104.379 31.3395 103.337 31.3395C102.295 31.3395 101.45 33.8724 101.45 36.9972C101.45 29.3167 100.605 23.0908 99.563 23.0908C98.521 23.0908 97.6758 29.3167 97.6756 36.9972C97.6754 31.5945 96.8306 27.2152 95.7887 27.2152C94.7464 27.2152 93.9019 31.5945 93.9017 36.9972C93.9015 29.5564 93.0566 23.525 92.0143 23.525C90.9724 23.525 90.1275 29.5564 90.1273 36.9972C90.1271 31.8942 89.2823 27.7579 88.2404 27.7579C87.1981 27.7579 86.3533 31.8942 86.353 36.9972C86.3527 32.6585 85.5082 29.1418 84.466 29.1418C83.4238 29.1418 82.5794 32.6585 82.5791 36.9972C82.5787 33.5726 81.7339 30.7969 80.6917 30.7969C79.6499 30.7969 78.8051 33.5726 78.8047 36.9972C78.8045 31.3548 77.9597 26.7811 76.9178 26.7811C75.8755 26.7811 75.0306 31.3548 75.0304 36.9972C75.0297 35.2809 74.185 33.89 73.1434 33.89C72.1015 33.89 71.2569 35.2809 71.2561 36.9972C71.2557 33.5726 70.4109 30.7969 69.3691 30.7969C68.327 30.7969 67.4825 33.5726 67.4821 36.9972C67.4814 35.161 66.6368 33.673 65.5948 33.673C64.5532 33.673 63.7085 35.161 63.7078 36.9972C63.7074 33.8124 62.8626 31.231 61.8208 31.231C60.7787 31.231 59.9339 33.8124 59.9335 36.9972C59.9333 30.8152 59.0888 25.8042 58.0465 25.8042C57.0042 25.8042 56.1597 30.8152 56.1595 36.9972C56.1594 29.1669 55.3145 22.8196 54.2722 22.8196C53.2302 22.8196 52.3854 29.1669 52.3852 36.9972C52.3849 32.134 51.5401 28.192 50.4979 28.192C49.456 28.192 48.6111 32.134 48.6109 36.9972C48.6107 30.2458 47.7658 24.7731 46.7239 24.7731C45.6816 24.7731 44.8368 30.2458 44.8366 36.9972C44.8362 33.5726 43.9917 30.7969 42.9496 30.7969C41.9078 30.7969 41.063 33.5726 41.0626 36.9972C41.0625 26.5893 40.2176 18.1525 39.1753 18.1525C38.1333 18.1525 37.2884 26.5893 37.2883 36.9972C37.2882 23.802 36.4433 13.1056 35.4013 13.1056C34.359 13.1056 33.5144 23.802 33.5143 36.9972C33.514 31.8942 32.6688 27.7579 31.627 27.7579C30.5847 27.7579 29.7399 31.8942 29.7396 36.9972C29.7393 33.5726 28.8948 30.7969 27.8526 30.7969C26.8105 30.7969 25.966 33.5726 25.9657 36.9972C25.9651 34.7415 25.1204 32.9133 24.0787 32.9133C23.0366 32.9133 22.1919 34.7415 22.1913 36.9972C22.191 33.5726 21.3462 30.7969 20.3044 30.7969C19.4979 30.7969 18.8147 32.4674 18.5444 34.8067C18.2463 32.9912 17.5939 31.7237 16.833 31.7237C16.0449 31.7237 15.3711 33.076 15.0886 34.9937C15.005 23.2032 14.1965 13.9468 13.2099 13.9468C12.1676 13.9468 11.3227 24.2665 11.3226 36.9972C11.3222 33.8423 10.4774 31.2853 9.43562 31.2853C8.39349 31.2853 7.5487 33.8423 7.54829 36.9972C7.54806 31.3847 6.70355 26.8353 5.6613 26.8353C4.61941 26.8353 3.77455 31.3847 3.77432 36.9972C3.77409 31.3847 2.92923 26.8353 1.88699 26.8353C0.844945 26.8353 0 31.3859 0 36.9995C0 37.0653 0.00011602 37.1309 0.000347018 37.1964V54.9973H306.815C306.922 55.1809 307.033 55.2766 307.145 55.2766C307.258 55.2766 307.369 55.1809 307.476 54.9973H343V37.1419C343.001 37.0946 343.001 37.0471 343.001 36.9995C343.001 34.1432 342.156 31.828 341.113 31.828C340.072 31.828 339.227 34.142 339.227 36.9972C339.226 33.5726 338.381 30.7969 337.339 30.7969C336.297 30.7969 335.453 33.5726 335.452 36.9972C335.452 30.9276 334.607 26.0077 333.565 26.0077C332.523 26.0077 331.678 30.9276 331.678 36.9972C331.678 27.466 330.833 19.7399 329.791 19.7399C328.749 19.7399 327.904 27.466 327.904 36.9972C327.903 21.3294 327.059 8.6286 326.017 8.6286C324.974 8.6286 324.13 21.3294 324.13 36.9972C324.129 24.8584 323.285 15.0185 322.242 15.0185C321.2 15.0185 320.355 24.8584 320.355 36.9972C320.355 21.6216 319.51 9.15768 318.468 9.15768C317.426 9.15768 316.581 21.6216 316.581 36.9972C316.581 16.564 315.736 0 314.694 0C313.652 0 312.807 16.564 312.807 36.9972Z" fill="#755DD5"/>
<path fill-rule="evenodd" clip-rule="evenodd" d="M655.807 36.9972C655.806 29.1069 654.962 22.711 653.92 22.711C652.877 22.711 652.033 29.1069 652.033 36.9972C652.033 26.9041 651.188 18.7223 650.145 18.7223C649.103 18.7223 648.258 26.9041 648.258 36.9972C648.258 23.9594 647.413 13.3904 646.371 13.3904C645.329 13.3904 644.484 23.9594 644.484 36.9972C644.484 20.8573 643.639 7.77378 642.597 7.77378C641.555 7.77378 640.71 20.8573 640.71 36.9972C640.709 33.5726 639.865 30.7969 638.823 30.7969C637.781 30.7969 636.936 33.5726 636.936 36.9972C636.936 21.8689 636.091 9.60534 635.048 9.60534C634.006 9.60534 633.161 21.8689 633.161 36.9972C633.161 17.036 632.316 0.85476 631.274 0.85476C630.232 0.85476 629.387 17.036 629.387 36.9972C629.387 17.4182 628.542 1.54662 627.5 1.54662C626.458 1.54662 625.613 17.4182 625.613 36.9972C625.613 27.7582 624.768 20.269 623.726 20.269C622.684 20.269 621.839 27.7582 621.839 36.9972C621.839 29.9161 620.994 24.1762 619.952 24.1762C618.91 24.1762 618.065 29.9161 618.064 36.9972C618.064 33.5726 617.219 30.7969 616.177 30.7969C615.135 30.7969 614.291 33.5726 614.29 36.9972C614.29 32.0065 613.445 27.9614 612.403 27.9614C611.361 27.9614 610.516 32.0065 610.516 36.9972C610.516 33.5726 609.671 30.7969 608.629 30.7969C607.587 30.7969 606.742 33.5726 606.742 36.9972C606.742 17.4182 605.897 1.54662 604.855 1.54662C603.812 1.54662 602.968 17.4182 602.968 36.9972C602.968 22.813 602.123 11.3148 601.081 11.3148C600.038 11.3148 599.194 22.813 599.194 36.9972C599.193 29.3766 598.349 23.1994 597.306 23.1994C596.264 23.1994 595.419 29.3766 595.419 36.9972C595.419 34.5916 594.574 32.6419 593.532 32.6419C592.49 32.6419 591.645 34.5916 591.645 36.9972C591.645 32.5011 590.8 28.8567 589.758 28.8567C588.716 28.8567 587.871 32.5011 587.871 36.9972C587.87 34.6815 587.025 32.8047 585.984 32.8047C584.942 32.8047 584.097 34.6815 584.097 36.9972C584.096 33.5726 583.251 30.7969 582.209 30.7969C581.167 30.7969 580.323 33.5726 580.322 36.9972C580.322 25.9599 579.477 17.0129 578.435 17.0129C577.393 17.0129 576.548 25.9599 576.548 36.9972C576.548 18.8117 575.703 4.0701 574.661 4.0701C573.619 4.0701 572.774 18.8117 572.774 36.9972C572.774 17.2608 571.929 1.26174 570.887 1.26174C569.844 1.26174 568.999 17.2608 568.999 36.9972C568.999 20.685 568.155 7.46178 567.113 7.46178C566.07 7.46178 565.225 20.685 565.225 36.9972C565.225 22.693 564.38 11.0977 563.338 11.0977C562.296 11.0977 561.451 22.693 561.451 36.9972C561.451 24.9409 560.606 15.1678 559.564 15.1678C558.522 15.1678 557.677 24.9409 557.677 36.9972C557.677 27.1887 556.832 19.2378 555.79 19.2378C554.747 19.2378 553.903 27.1887 553.902 36.9972C553.902 32.3138 553.058 28.5176 552.015 28.5176C550.974 28.5176 550.128 32.3138 550.128 36.9972C550.128 33.5726 549.283 30.7969 548.241 30.7969C547.199 30.7969 546.355 33.5726 546.354 36.9972C546.354 32.9731 545.509 29.7115 544.467 29.7115C543.425 29.7115 542.58 32.9731 542.58 36.9972C542.579 33.8423 541.735 31.2853 540.693 31.2853C539.651 31.2853 538.806 33.8423 538.806 36.9972C538.805 34.5916 537.961 32.6419 536.919 32.6419C535.877 32.6419 535.032 34.5916 535.032 36.9972C535.031 33.5726 534.186 30.7969 533.144 30.7969C532.102 30.7969 531.258 33.5726 531.258 36.9972C531.257 31.7743 530.412 27.5408 529.37 27.5408C528.328 27.5408 527.483 31.7743 527.483 36.9972C527.483 29.7363 526.638 23.8507 525.596 23.8507C524.554 23.8507 523.709 29.7363 523.709 36.9972C523.709 27.3685 522.864 19.5634 521.822 19.5634C520.78 19.5634 519.935 27.3685 519.935 36.9972C519.935 24.1018 519.09 13.6482 518.048 13.6482C517.005 13.6482 516.16 24.1018 516.16 36.9972C516.16 23.0229 515.315 11.6946 514.273 11.6946C513.231 11.6946 512.386 23.0229 512.386 36.9972C512.386 33.5726 511.541 30.7969 510.499 30.7969C509.457 30.7969 508.612 33.5726 508.612 36.9972C508.612 29.3167 507.767 23.0908 506.725 23.0908C505.683 23.0908 504.838 29.3167 504.838 36.9972C504.837 32.134 503.993 28.192 502.951 28.192C501.909 28.192 501.064 32.134 501.063 36.9972C501.063 33.5726 500.219 30.7969 499.176 30.7969C498.135 30.7969 497.289 33.5726 497.289 36.9972C497.289 31.7743 496.444 27.5408 495.402 27.5408C494.36 27.5408 493.515 31.7743 493.515 36.9972C493.515 29.1069 492.67 22.711 491.628 22.711C490.586 22.711 489.741 29.1069 489.741 36.9972C489.741 24.9708 488.896 15.222 487.853 15.222C486.812 15.222 485.967 24.9708 485.967 36.9972C485.967 20.1454 485.121 6.48498 484.08 6.48498C483.037 6.48498 482.193 20.1454 482.192 36.9972C482.192 22.783 481.347 11.2605 480.305 11.2605C479.263 11.2605 478.418 22.783 478.418 36.9972C478.418 30.4855 477.573 25.2072 476.531 25.2072C475.489 25.2072 474.644 30.4855 474.644 36.9972C474.644 31.5945 473.799 27.2152 472.757 27.2152C471.715 27.2152 470.87 31.5945 470.87 36.9972C470.87 30.3058 470.025 24.8816 468.983 24.8816C467.941 24.8816 467.096 30.3058 467.096 36.9972C467.095 24.4914 466.251 14.3538 465.209 14.3538C464.166 14.3538 463.321 24.4914 463.321 36.9972C463.321 21.3444 462.477 8.6556 461.434 8.6556C460.392 8.6556 459.547 21.3444 459.547 36.9972C459.547 19.4261 458.702 5.1825 457.66 5.1825C456.618 5.1825 455.773 19.4261 455.773 36.9972C455.773 30.4855 454.928 25.2072 453.886 25.2072C452.843 25.2072 451.999 30.4855 451.999 36.9972C451.998 32.134 451.153 28.192 450.111 28.192C449.069 28.192 448.225 32.134 448.224 36.9972C448.224 33.8724 447.379 31.3395 446.337 31.3395C445.295 31.3395 444.45 33.8724 444.45 36.9972C444.45 29.3167 443.605 23.0908 442.563 23.0908C441.521 23.0908 440.676 29.3167 440.676 36.9972C440.675 31.5945 439.831 27.2152 438.789 27.2152C437.746 27.2152 436.902 31.5945 436.902 36.9972C436.901 29.5564 436.057 23.525 435.014 23.525C433.972 23.525 433.128 29.5564 433.127 36.9972C433.127 31.8942 432.282 27.7579 431.24 27.7579C430.198 27.7579 429.353 31.8942 429.353 36.9972C429.353 32.6585 428.508 29.1418 427.466 29.1418C426.424 29.1418 425.579 32.6585 425.579 36.9972C425.579 33.5726 424.734 30.7969 423.692 30.7969C422.65 30.7969 421.805 33.5726 421.805 36.9972C421.805 31.3548 420.96 26.7811 419.918 26.7811C418.876 26.7811 418.031 31.3548 418.03 36.9972C418.03 35.2809 417.185 33.89 416.143 33.89C415.102 33.89 414.257 35.2809 414.256 36.9972C414.256 33.5726 413.411 30.7969 412.369 30.7969C411.327 30.7969 410.483 33.5726 410.482 36.9972C410.481 35.161 409.637 33.673 408.595 33.673C407.553 33.673 406.709 35.161 406.708 36.9972C406.707 33.8124 405.863 31.231 404.821 31.231C403.779 31.231 402.934 33.8124 402.933 36.9972C402.933 30.8152 402.089 25.8042 401.047 25.8042C400.004 25.8042 399.16 30.8152 399.16 36.9972C399.159 29.1669 398.314 22.8196 397.272 22.8196C396.23 22.8196 395.385 29.1669 395.385 36.9972C395.385 32.134 394.54 28.192 393.498 28.192C392.456 28.192 391.611 32.134 391.611 36.9972C391.611 30.2458 390.766 24.7731 389.724 24.7731C388.682 24.7731 387.837 30.2458 387.837 36.9972C387.836 33.5726 386.992 30.7969 385.95 30.7969C384.908 30.7969 384.063 33.5726 384.063 36.9972C384.062 26.5893 383.218 18.1525 382.175 18.1525C381.133 18.1525 380.288 26.5893 380.288 36.9972C380.288 23.802 379.443 13.1056 378.401 13.1056C377.359 13.1056 376.514 23.802 376.514 36.9972C376.514 31.8942 375.669 27.7579 374.627 27.7579C373.585 27.7579 372.74 31.8942 372.74 36.9972C372.739 33.5726 371.895 30.7969 370.853 30.7969C369.81 30.7969 368.966 33.5726 368.966 36.9972C368.965 34.7415 368.12 32.9133 367.079 32.9133C366.037 32.9133 365.192 34.7415 365.191 36.9972C365.191 33.5726 364.346 30.7969 363.304 30.7969C362.498 30.7969 361.815 32.4674 361.544 34.8067C361.246 32.9912 360.594 31.7237 359.833 31.7237C359.045 31.7237 358.371 33.076 358.089 34.9937C358.005 23.2032 357.196 13.9468 356.21 13.9468C355.168 13.9468 354.323 24.2665 354.323 36.9972C354.322 33.8423 353.477 31.2853 352.436 31.2853C351.393 31.2853 350.549 33.8423 350.548 36.9972C350.548 31.3847 349.704 26.8353 348.661 26.8353C347.619 26.8353 346.775 31.3847 346.774 36.9972C346.774 31.3847 345.929 26.8353 344.887 26.8353C343.845 26.8353 343 31.3859 343 36.9995C343 37.0653 343 37.1309 343 37.1964V54.9973H649.815C649.922 55.1809 650.033 55.2766 650.145 55.2766C650.258 55.2766 650.369 55.1809 650.476 54.9973H686V37.1419C686.001 37.0946 686.001 37.0471 686.001 36.9995C686.001 34.1432 685.156 31.828 684.113 31.828C683.072 31.828 682.227 34.142 682.227 36.9972C682.226 33.5726 681.381 30.7969 680.339 30.7969C679.297 30.7969 678.453 33.5726 678.452 36.9972C678.452 30.9276 677.607 26.0077 676.565 26.0077C675.523 26.0077 674.678 30.9276 674.678 36.9972C674.678 27.466 673.833 19.7399 672.791 19.7399C671.749 19.7399 670.904 27.466 670.904 36.9972C670.903 21.3294 670.059 8.6286 669.017 8.6286C667.974 8.6286 667.13 21.3294 667.13 36.9972C667.129 24.8584 666.285 15.0185 665.242 15.0185C664.2 15.0185 663.355 24.8584 663.355 36.9972C663.355 21.6216 662.51 9.15768 661.468 9.15768C660.426 9.15768 659.581 21.6216 659.581 36.9972C659.581 16.564 658.736 0 657.694 0C656.652 0 655.807 16.564 655.807 36.9972Z" fill="#755DD5"/>
</svg>
