<?xml version="1.0" encoding="utf-8"?>
<!-- Generator: Adobe Illustrator 23.1.1, SVG Export Plug-In . SVG Version: 6.00 Build 0)  -->
<svg version="1.1" id="Layer_1" xmlns="http://www.w3.org/2000/svg" xmlns:xlink="http://www.w3.org/1999/xlink" x="0px" y="0px"
	 viewBox="0 0 30 26" style="enable-background:new 0 0 30 26;" xml:space="preserve">
<style type="text/css">
	.st0{fill-rule:evenodd;clip-rule:evenodd;fill:#6F729C;}
</style>
<path id="next_ico" class="st0" d="M4.9,0C2.2,0,0,2.2,0,4.9v16.2C0,23.8,2.1,26,4.8,26c0.9,0,1.8-0.3,2.6-0.7l7.5-4.7
	c0.5-0.3,0.7-1.1,0.4-1.6c-0.2-0.3-0.6-0.5-1-0.5c-0.2,0-0.4,0.1-0.6,0.2l-7.5,4.7C5,24,3.5,23.6,2.7,22.5c-0.3-0.4-0.4-0.9-0.4-1.4
	V4.9c0-1.4,1.1-2.5,2.5-2.6c0.5,0,1,0.1,1.4,0.4l12.9,8.1c1.2,0.8,1.6,2.3,0.8,3.5c-0.2,0.3-0.5,0.6-0.8,0.8
	c-0.5,0.3-0.7,1.1-0.4,1.6c0.3,0.5,1,0.7,1.6,0.4c0,0,0,0,0,0c2.3-1.4,3-4.5,1.5-6.8c-0.4-0.6-0.9-1.2-1.5-1.5L7.4,0.7
	C6.7,0.3,5.8,0,4.9,0z M28.7,0C29.4,0,30,0.6,30,1.3v23.3c0,0.7-0.6,1.3-1.3,1.3s-1.3-0.6-1.3-1.3V1.3C27.3,0.6,27.9,0,28.7,0
	L28.7,0L28.7,0z"/>
</svg>
