<?xml version="1.0" encoding="utf-8"?>
<!-- Generator: Adobe Illustrator 23.1.1, SVG Export Plug-In . SVG Version: 6.00 Build 0)  -->
<svg version="1.1" id="Layer_1" xmlns="http://www.w3.org/2000/svg" xmlns:xlink="http://www.w3.org/1999/xlink" x="0px" y="0px"
	 viewBox="0 0 30 26" style="enable-background:new 0 0 30 26;" xml:space="preserve">
<style type="text/css">
	.st0{fill-rule:evenodd;clip-rule:evenodd;fill:#6F729C;}
</style>
<path id="previous_ico" class="st0" d="M25.1,0C27.8,0,30,2.2,30,4.9v16.2c0,2.7-2.1,4.9-4.8,4.9c-0.9,0-1.8-0.3-2.6-0.7L15,20.5
	c-0.5-0.3-0.7-1.1-0.4-1.6c0.2-0.3,0.6-0.5,1-0.5c0.2,0,0.4,0.1,0.6,0.2l7.5,4.7c1.2,0.7,2.8,0.4,3.5-0.8c0.3-0.4,0.4-0.9,0.4-1.4
	V4.9c0-1.4-1.1-2.5-2.5-2.6c-0.5,0-1,0.1-1.4,0.4l-12.9,8.1c-1.2,0.8-1.6,2.3-0.8,3.5c0.2,0.3,0.5,0.6,0.8,0.8
	c0.5,0.3,0.7,1.1,0.4,1.6c-0.3,0.5-1,0.7-1.6,0.4c0,0,0,0,0,0c-2.3-1.4-3-4.5-1.5-6.8C8.5,9.8,9,9.2,9.6,8.8l12.9-8.1
	C23.3,0.3,24.2,0,25.1,0z M1.3,0c0.7,0,1.3,0.6,1.3,1.3l0,0v23.3c0,0.7-0.6,1.3-1.3,1.3S0,25.4,0,24.7V1.3C0,0.6,0.6,0,1.3,0L1.3,0z
	"/>
</svg>
