<?xml version="1.0" encoding="utf-8"?>
<!-- Generator: Adobe Illustrator 23.1.1, SVG Export Plug-In . SVG Version: 6.00 Build 0)  -->
<svg version="1.1" id="Layer_1" xmlns="http://www.w3.org/2000/svg" xmlns:xlink="http://www.w3.org/1999/xlink" x="0px" y="0px"
	 viewBox="0 0 26 26" style="enable-background:new 0 0 26 26;" xml:space="preserve">
<style type="text/css">
	.st0{fill-rule:evenodd;clip-rule:evenodd;fill:#6F729C;}
</style>
<path id="repeat_ico" class="st0" d="M1.1,15.6c-0.6,0-1.1-0.5-1.1-1.1v-3C0,6.8,3.8,3,8.5,3h12.3V0.3C20.9,0.1,21,0,21.2,0
	c0.1,0,0.1,0,0.2,0.1l4.5,3.8C26,4,26,4.2,25.9,4.3L21.4,8c-0.1,0.1-0.1,0.1-0.2,0.1c-0.2,0-0.3-0.1-0.3-0.3V5.1H8.5
	C5,5.1,2.1,8,2.1,11.5v3C2.1,15.1,1.6,15.6,1.1,15.6z M4.8,26c-0.1,0-0.1,0-0.2-0.1l-4.5-3.8C0.1,22.1,0,22,0,21.9
	c0-0.1,0-0.2,0.1-0.2L4.6,18c0.1-0.1,0.3-0.1,0.4,0c0.1,0.1,0.1,0.1,0.1,0.2v2.7h12.4c3.5,0,6.4-2.9,6.4-6.4v-3
	c0-0.6,0.5-1.1,1.1-1.1c0.6,0,1.1,0.5,1.1,1.1l0,0v3c0,4.7-3.8,8.5-8.5,8.5H5.1v2.7C5.1,25.8,5,26,4.8,26z"/>
</svg>
