<?xml version="1.0" encoding="utf-8"?>
<!-- Generator: Adobe Illustrator 23.1.1, SVG Export Plug-In . SVG Version: 6.00 Build 0)  -->
<svg version="1.1" id="Layer_1" xmlns="http://www.w3.org/2000/svg" xmlns:xlink="http://www.w3.org/1999/xlink" x="0px" y="0px"
	 viewBox="0 0 26 26" style="enable-background:new 0 0 26 26;" xml:space="preserve">
<style type="text/css">
	.st0{fill-rule:evenodd;clip-rule:evenodd;fill:#6F729C;}
</style>
<path id="shuffle_ico" class="st0" d="M21.2,26c-0.2,0-0.3-0.1-0.3-0.3V23l-0.4,0c-4.1-0.2-7.7-2.9-9-6.9l-1.9-5.7
	C8.5,7.3,5.5,5.1,2.1,5.1h-1C0.5,5.1,0,4.7,0,4.1C-0.1,3.5,0.4,3,1,3c0,0,0,0,0.1,0h1c4.3,0,8.1,2.8,9.5,6.9l1.9,5.7
	c1,3,3.8,5.2,7,5.4l0.5,0v-2.7c0-0.2,0.1-0.3,0.3-0.3l0,0c0.1,0,0.2,0,0.2,0.1l4.2,3.5l0.2,0.2C26,21.8,26,21.9,26,22
	c0,0.1,0,0.2-0.1,0.2l-4.5,3.7C21.4,25.9,21.3,26,21.2,26z M21.2,8.1c-0.2,0-0.3-0.1-0.3-0.3V5.1l-0.5,0c-1.7,0.1-3.4,0.8-4.7,2
	c-0.2,0.2-0.4,0.3-0.7,0.3l0,0c-0.3,0-0.6-0.1-0.8-0.4c-0.4-0.4-0.3-1.1,0.1-1.5c0,0,0,0,0,0C16,4,18.2,3.1,20.5,3l0.4,0V0.3
	C20.9,0.2,21,0,21.2,0c0.1,0,0.2,0,0.3,0.1l4.5,3.8C26,4,26,4.2,25.9,4.3L21.4,8C21.4,8.1,21.3,8.1,21.2,8.1L21.2,8.1z M1.1,23
	C0.5,23,0,22.5,0,21.9c0-0.6,0.5-1.1,1.1-1.1c0,0,0,0,0,0h1c1.8,0,3.5-0.6,4.9-1.7l0.1,0c0.5-0.3,1.1-0.3,1.5,0.2
	c0.4,0.4,0.3,1.1-0.1,1.5c0,0,0,0,0,0c-1.8,1.4-4,2.2-6.3,2.2H1.1z"/>
</svg>
