<?xml version="1.0" encoding="utf-8"?>
<!-- Generator: Adobe Illustrator 23.1.1, SVG Export Plug-In . SVG Version: 6.00 Build 0)  -->
<svg version="1.1" id="Layer_1" xmlns="http://www.w3.org/2000/svg" xmlns:xlink="http://www.w3.org/1999/xlink" x="0px" y="0px"
	 viewBox="0 0 4 29" style="enable-background:new 0 0 4 29;" xml:space="preserve">
<style type="text/css">
	.st0{fill-rule:evenodd;clip-rule:evenodd;fill:#FFFFFF;}
</style>
<path id="more_ico" class="st0" d="M2,25c1.1,0,2,0.9,2,2s-0.9,2-2,2c-1.1,0-2-0.9-2-2C0,25.9,0.9,25,2,25z M2,12.5c1.1,0,2,0.9,2,2
	s-0.9,2-2,2c-1.1,0-2-0.9-2-2S0.9,12.5,2,12.5z M2,0c1.1,0,2,0.9,2,2S3.1,4,2,4C0.9,4,0,3.1,0,2C0,0.9,0.9,0,2,0z"/>
</svg>
