<?xml version="1.0" encoding="utf-8"?>
<!-- Generator: Adobe Illustrator 23.1.1, SVG Export Plug-In . SVG Version: 6.00 Build 0)  -->
<svg version="1.1" id="Layer_1" xmlns="http://www.w3.org/2000/svg" xmlns:xlink="http://www.w3.org/1999/xlink" x="0px" y="0px"
	 viewBox="0 0 36 26" style="enable-background:new 0 0 36 26;" xml:space="preserve">
<style type="text/css">
	.st0{fill-rule:evenodd;clip-rule:evenodd;fill:#755DD5;}
</style>
<path id="playlist_ico" class="st0" d="M11.1,26c-0.9,0-1.7-0.7-1.7-1.7c0-0.9,0.7-1.7,1.7-1.7c0,0,0,0,0,0h23.2
	c0.9,0,1.7,0.7,1.7,1.7c0,0.9-0.7,1.7-1.7,1.7c0,0,0,0,0,0H11.1z M11.1,14.7c-0.9,0-1.7-0.7-1.7-1.7c0-0.9,0.7-1.7,1.7-1.7
	c0,0,0,0,0,0h23.2c0.9,0,1.7,0.7,1.7,1.7c0,0.9-0.7,1.7-1.7,1.7c0,0,0,0,0,0H11.1z M11.1,3.4c-0.9,0-1.7-0.7-1.7-1.7
	c0-0.9,0.7-1.7,1.7-1.7c0,0,0,0,0,0h23.2C35.2,0,36,0.8,36,1.7c0,0.9-0.7,1.7-1.7,1.7c0,0,0,0,0,0H11.1z M1.7,3.4
	C0.8,3.4,0,2.6,0.1,1.7S0.9,0,1.8,0c0.9,0,1.7,0.8,1.7,1.7C3.5,2.7,2.7,3.4,1.7,3.4L1.7,3.4z M1.7,14.7c-0.9,0-1.7-0.8-1.7-1.7
	c0-0.9,0.8-1.7,1.7-1.7c0.9,0,1.7,0.8,1.7,1.7C3.5,13.9,2.7,14.7,1.7,14.7C1.7,14.7,1.7,14.7,1.7,14.7L1.7,14.7z M1.7,26
	c-0.9,0-1.7-0.8-1.7-1.7s0.8-1.7,1.7-1.7c0.9,0,1.7,0.8,1.7,1.7C3.5,25.2,2.7,26,1.7,26C1.7,26,1.7,26,1.7,26L1.7,26z"/>
</svg>
